#!OML:ASF I:\Random Stuff\random\construction\7_22_03\Session 2\subj1.ASF
:FULLY-SPECIFIED
:DEGREES
683
root 4.12856 17.7608 -9.40579 18.3665 -24.347 -2.16768
lowerback 11.2378 0.309664 5.108
upperback 5.70011 0.823983 -1.07847
thorax -0.24014 0.502269 -4.09206
lowerneck -19.8601 2.87546 -2.14566
upperneck 38.4855 8.78864 -9.01231
head 18.2561 1.80158 -2.01062
rclavicle -4.45775e-014 -3.57812e-015
rhumerus 5.42082 53.1748 -40.5055
rradius 91.4933
rwrist -15.843
rhand -22.8091 8.95697
rfingers 7.12502
rthumb 3.62742 -20.9919
lclavicle -4.45775e-014 -3.57812e-015
lhumerus 3.08545 -68.6111 87.4782
lradius 77.9192
lwrist -12.8977
lhand -25.3526 38.4885
lfingers 7.12502
lthumb 1.17107 428.465
rfemur -27.005 1.18104 18.3746
rtibia 15.5015
rfoot -3.87567 -8.87338
rtoes -9.77252
lfemur -23.7278 -17.3563 -4.17611
ltibia 17.9046
lfoot -11.6969 22.5017
ltoes -34.8563
684
root 4.12491 17.7601 -9.40714 18.4257 -24.0891 -2.20117
lowerback 11.2124 0.330064 5.20981
upperback 5.68704 0.860451 -1.0747
thorax -0.233591 0.522661 -4.14944
lowerneck -19.8395 2.81681 -2.10654
upperneck 38.5235 8.66069 -8.94211
head 18.2579 1.7674 -2.01278
rclavicle -3.90115e-014 -1.49089e-015
rhumerus 4.39074 53.3938 -40.9342
rradius 92.5093
rwrist -17.6627
rhand -24.1358 8.02353
rfingers 7.12502
rthumb 2.34618 -21.9433
lclavicle -3.90115e-014 -1.49089e-015
lhumerus 3.22864 -68.8805 87.4743
lradius 77.7779
lwrist -12.8527
lhand -25.3822 38.6009
lfingers 7.12502
lthumb 1.14247 428.578
rfemur -27.0339 1.0633 18.4533
rtibia 15.5384
rfoot -3.90708 -8.98147
rtoes -9.24918
lfemur -23.8725 -17.5704 -4.00191
ltibia 17.8743
lfoot -11.7053 22.5096
ltoes -34.6505
685
root 4.12065 17.76 -9.40798 18.4684 -23.8597 -2.22452
lowerback 11.1948 0.341579 5.26555
upperback 5.67482 0.881339 -1.0521
thorax -0.233613 0.533874 -4.15941
lowerneck -19.8011 2.77912 -2.1279
upperneck 38.5475 8.57987 -8.85945
head 18.2464 1.74541 -1.98778
rclavicle -1.19271e-014 3.4191e-014
rhumerus 3.23237 53.4468 -41.4954
rradius 93.575
rwrist -18.5856
rhand -25.432 7.9146
rfingers 7.12502
rthumb 1.09437 -22.0623
lclavicle -1.19271e-014 3.4191e-014
lhumerus 3.26112 -69.0758 87.5632
lradius 77.7252
lwrist -12.8253
lhand -25.4665 39.045
lfingers 7.12502
lthumb 1.06106 429.022
rfemur -27.0423 1.04617 18.4921
rtibia 15.5702
rfoot -3.95017 -9.18125
rtoes -8.92733
lfemur -23.9839 -17.5812 -3.90432
ltibia 17.8455
lfoot -11.7301 22.3256
ltoes -34.3894
686
root 4.11554 17.7611 -9.40814 18.4619 -23.6537 -2.21233
lowerback 11.2177 0.314228 5.19752
upperback 5.67354 0.841471 -0.98496
thorax -0.254886 0.511202 -4.04661
lowerneck -19.7875 2.77889 -2.2468
upperneck 38.5806 8.60006 -8.78489
head 18.2511 1.74545 -1.92863
rclavicle 4.78574e-014 -3.38431e-014
rhumerus 2.21377 53.443 -42.0071
rradius 94.469
rwrist -18.5383
rhand -26.4301 8.40893
rfingers 7.12502
rthumb 0.130324 -21.5708
lclavicle 4.78574e-014 -3.38431e-014
lhumerus 3.21451 -69.0842 87.7316
lradius 77.7068
lwrist -12.8375
lhand -25.451 39.2509
lfingers 7.12502
lthumb 1.07599 429.228
rfemur -27.0026 1.04056 18.49
rtibia 15.5899
rfoot -3.99165 -9.37646
rtoes -8.56226
lfemur -24.0484 -17.6021 -3.86361
ltibia 17.835
lfoot -11.5867 22.1959
ltoes -34.8302
687
root 4.11038 17.7621 -9.40713 18.4234 -23.4398 -2.18567
lowerback 11.2409 0.24669 5.12729
upperback 5.6934 0.747544 -0.938142
thorax -0.259405 0.462721 -3.94776
lowerneck -19.856 2.79959 -2.31542
upperneck 38.6592 8.66256 -8.75553
head 18.3143 1.75792 -1.89295
rclavicle -7.53891e-014 1.3418e-015
rhumerus 1.25974 53.3303 -42.559
rradius 95.2668
rwrist -18.3
rhand -26.5537 6.57203
rfingers 7.12502
rthumb 0.0109419 -23.4077
lclavicle -7.53891e-014 1.3418e-015
lhumerus 3.25238 -69.0153 87.7694
lradius 77.6827
lwrist -12.8591
lhand -25.309 39.391
lfingers 7.12502
lthumb 1.21312 429.367
rfemur -26.9431 0.928495 18.5109
rtibia 15.6204
rfoot -4.01791 -9.46356
rtoes -8.65972
lfemur -24.0833 -17.9346 -3.76553
ltibia 17.8031
lfoot -11.4456 22.3641
ltoes -35.2984
688
root 4.10443 17.7613 -9.40376 18.3985 -23.2296 -2.1774
lowerback 11.2061 0.177176 5.1141
upperback 5.71936 0.652663 -0.944107
thorax -0.223572 0.416975 -3.93545
lowerneck -19.9657 2.82003 -2.25151
upperneck 38.7774 8.68368 -8.73604
head 18.4158 1.76918 -1.89597
rclavicle 3.23522e-014 1.31198e-014
rhumerus 0.173161 52.996 -43.3496
rradius 95.7391
rwrist -17.7345
rhand -25.123 10.6373
rfingers 7.12502
rthumb 1.39274 -19.3379
lclavicle 3.23522e-014 1.31198e-014
lhumerus 3.29647 -68.9849 87.697
lradius 77.7051
lwrist -12.8459
lhand -25.3016 39.3705
lfingers 7.12502
lthumb 1.22025 429.347
rfemur -26.8942 0.744825 18.5771
rtibia 15.6624
rfoot -4.04994 -9.4899
rtoes -9.13311
lfemur -24.1201 -18.4625 -3.593
ltibia 17.7649
lfoot -11.5662 22.7294
ltoes -35.1246
689
root 4.09732 17.7607 -9.39873 18.4177 -23.0588 -2.19327
lowerback 11.1049 0.167686 5.14155
upperback 5.73251 0.636939 -1.00228
thorax -0.154964 0.41301 -4.0087
lowerneck -20.0414 2.79388 -2.09313
upperneck 38.9042 8.56728 -8.65408
head 18.5015 1.7509 -1.91567
rclavicle 3.13086e-015 -2.71341e-014
rhumerus -1.11581 52.26 -44.516
rradius 95.8547
rwrist -16.4621
rhand -24.0258 12.2097
rfingers 7.12502
rthumb 2.45239 -17.7559
lclavicle 3.13086e-015 -2.71341e-014
lhumerus 3.33065 -69.1402 87.5645
lradius 77.7629
lwrist -12.7916
lhand -25.4182 39.2198
lfingers 7.12502
lthumb 1.10766 429.197
rfemur -26.8758 0.542101 18.6759
rtibia 15.6963
rfoot -4.08276 -9.46658
rtoes -9.47373
lfemur -24.175 -18.7203 -3.46001
ltibia 17.7665
lfoot -11.7547 22.8254
ltoes -34.6738
690
root 4.09242 17.7591 -9.39493 18.4222 -22.943 -2.20639
lowerback 11.0286 0.173663 5.15391
upperback 5.74677 0.641225 -1.05961
thorax -0.0969116 0.418356 -4.07503
lowerneck -20.0852 2.74736 -1.97508
upperneck 39.0012 8.4315 -8.57846
head 18.5587 1.72069 -1.93411
rclavicle -5.27773e-014 1.05356e-014
rhumerus -2.01918 51.4731 -45.3251
rradius 95.9557
rwrist -14.6422
rhand -23.4678 11.1834
rfingers 7.12502
rthumb 2.99131 -18.7753
lclavicle -5.27773e-014 1.05356e-014
lhumerus 3.397 -69.2973 87.4273
lradius 77.8135
lwrist -12.7392
lhand -25.4715 39.192
lfingers 7.12502
lthumb 1.05616 429.169
rfemur -26.8507 0.404092 18.744
rtibia 15.726
rfoot -4.11706 -9.45758
rtoes -9.60769
lfemur -24.2123 -18.8763 -3.36502
ltibia 17.8037
lfoot -11.9919 22.7648
ltoes -33.8305
691
root 4.09053 17.7557 -9.39232 18.3805 -22.8805 -2.22245
lowerback 11.0064 0.14004 5.13119
upperback 5.78734 0.59238 -1.07167
thorax -0.047937 0.395858 -4.069
lowerneck -20.1462 2.73593 -1.9745
upperneck 39.0563 8.42315 -8.57556
head 18.6077 1.71307 -1.93732
rclavicle -3.85642e-014 2.37548e-014
rhumerus -2.27495 50.7663 -45.5306
rradius 95.9255
rwrist -12.0473
rhand -23.26 11.0747
rfingers 7.12502
rthumb 3.19198 -18.8812
lclavicle -3.85642e-014 2.37548e-014
lhumerus 3.53882 -69.2668 87.3034
lradius 77.8054
lwrist -12.6802
lhand -25.5735 39.091
lfingers 7.12502
lthumb 0.957645 429.069
rfemur -26.7788 0.389379 18.7704
rtibia 15.7629
rfoot -4.15122 -9.52398
rtoes -9.70394
lfemur -24.2066 -19.098 -3.28897
ltibia 17.8622
lfoot -12.2313 22.8677
ltoes -33.1965
692
root 4.08896 17.7535 -9.39047 18.3323 -22.8752 -2.25328
lowerback 10.9936 0.0988233 5.07036
upperback 5.83236 0.530442 -1.06404
thorax -0.00181871 0.365601 -4.01954
lowerneck -20.1962 2.76329 -1.9859
upperneck 39.1023 8.48762 -8.59928
head 18.6557 1.72863 -1.93536
rclavicle 2.57426e-014 1.09332e-014
rhumerus -2.29607 49.8264 -45.6947
rradius 95.5364
rwrist -8.45918
rhand -22.1454 12.2644
rfingers 7.12502
rthumb 4.26841 -17.6726
lclavicle 2.57426e-014 1.09332e-014
lhumerus 3.56468 -69.1476 87.3002
lradius 77.7324
lwrist -12.6804
lhand -25.806 38.8871
lfingers 7.12502
lthumb 0.733162 428.866
rfemur -26.7089 0.40843 18.8084
rtibia 15.7975
rfoot -4.1672 -9.55799
rtoes -9.83282
lfemur -24.1732 -19.1854 -3.2622
ltibia 17.9479
lfoot -12.3314 22.9607
ltoes -33.2209
693
root 4.08837 17.7513 -9.39003 18.2878 -22.9368 -2.27348
lowerback 10.9867 0.0743815 4.97747
upperback 5.86951 0.487795 -1.07704
thorax 0.034747 0.344066 -3.97573
lowerneck -20.2297 2.80831 -1.92361
upperneck 39.1563 8.562 -8.6555
head 18.7114 1.75472 -1.96067
rclavicle -2.06736e-014 1.76918e-014
rhumerus -2.05167 48.7912 -45.7063
rradius 94.9567
rwrist -5.02201
rhand -21.9117 12.1777
rfingers 7.12502
rthumb 4.49402 -17.7546
lclavicle -2.06736e-014 1.76918e-014
lhumerus 3.46298 -69.0299 87.3276
lradius 77.6884
lwrist -12.7225
lhand -26.0044 38.7331
lfingers 7.12502
lthumb 0.541517 428.712
rfemur -26.6837 0.346043 18.861
rtibia 15.8318
rfoot -4.17937 -9.44326
rtoes -9.86851
lfemur -24.1302 -19.2841 -3.23471
ltibia 18.0427
lfoot -12.5804 22.9907
ltoes -32.5596
694
root 4.08956 17.748 -9.39217 18.2699 -23.0675 -2.31362
lowerback 10.9987 0.0847772 4.9143
upperback 5.89931 0.494404 -1.11565
thorax 0.0595087 0.347548 -3.98103
lowerneck -20.2721 2.83924 -1.80427
upperneck 39.2161 8.61076 -8.75257
head 18.7784 1.77352 -2.02173
rclavicle -2.03754e-014 2.8625e-014
rhumerus -1.5853 47.5768 -45.6611
rradius 94.3492
rwrist -2.56394
rhand -18.8834 13.4769
rfingers 7.12502
rthumb 7.41773 -16.3731
lclavicle -2.03754e-014 2.8625e-014
lhumerus 3.41533 -68.9718 87.2474
lradius 77.7374
lwrist -12.7613
lhand -26.0442 38.6994
lfingers 7.12502
lthumb 0.503034 428.679
rfemur -26.7065 0.378553 18.9002
rtibia 15.8764
rfoot -4.18546 -9.34377
rtoes -9.78295
lfemur -24.0934 -19.381 -3.1857
ltibia 18.1303
lfoot -12.8645 23.0857
ltoes -31.7704
695
root 4.09184 17.746 -9.39622 18.2648 -23.2299 -2.35934
lowerback 11.0267 0.147977 4.92269
upperback 5.91618 0.577629 -1.19966
thorax 0.0723571 0.390944 -4.08278
lowerneck -20.2885 2.82373 -1.62704
upperneck 39.2662 8.5518 -8.82453
head 18.8244 1.76487 -2.1038
rclavicle -4.3832e-014 -2.98177e-015
rhumerus -1.23961 46.0219 -45.8549
rradius 93.6597
rwrist -0.506809
rhand -16.1658 15.3063
rfingers 7.12502
rthumb 10.0402 -14.4342
lclavicle -4.3832e-014 -2.98177e-015
lhumerus 3.42899 -69.0814 87.1133
lradius 77.8054
lwrist -12.8188
lhand -26.0093 38.718
lfingers 7.12502
lthumb 0.536725 428.697
rfemur -26.7421 0.549252 18.9031
rtibia 15.908
rfoot -4.15842 -9.34939
rtoes -9.87913
lfemur -24.0565 -19.3197 -3.18491
ltibia 18.2063
lfoot -12.9561 23.1585
ltoes -31.6142
